<svg width="253" height="101" viewBox="0 0 253 101" fill="none" xmlns="http://www.w3.org/2000/svg">
<path d="M6.99549 17C2.49179 17 -0.837382 21.1954 0.185989 25.5813L13.2385 81.5207C13.977 84.6854 16.7983 86.9242 20.048 86.9242H58.6761L82.157 100.159C83.1809 100.736 84.4168 99.8695 84.2231 98.7103L82.2533 86.9242H93.3498C96.8981 86.9242 99.8839 84.2665 100.295 80.7421L106.821 24.8027C107.306 20.648 104.059 17 99.876 17H6.99549Z" fill="#09AF72"/>
<circle cx="36.6137" cy="39.2367" r="6.73868" fill="#0A8A66"/>
<circle cx="35.7152" cy="38.3383" r="6.73868" fill="white"/>
<circle cx="63.7934" cy="39.2367" r="6.73868" fill="#0A8A66"/>
<circle cx="62.8949" cy="38.3383" r="6.73868" fill="white"/>
<path d="M70.4386 52.6607C70.4386 54.8645 70.0046 57.0468 69.1612 59.0828C68.3178 61.1189 67.0817 62.9689 65.5234 64.5273C63.965 66.0856 62.115 67.3217 60.0789 68.1651C58.0429 69.0085 55.8606 69.4425 53.6568 69.4425C51.453 69.4425 49.2708 69.0085 47.2347 68.1651C45.1986 67.3217 43.3486 66.0856 41.7903 64.5273C40.2319 62.9689 38.9958 61.1189 38.1524 59.0828C37.3091 57.0468 36.875 54.8645 36.875 52.6607L53.6568 52.6607H70.4386Z" fill="#0A8A66"/>
<path d="M69.7394 51.9615C69.7394 54.1653 69.3053 56.3476 68.462 58.3836C67.6186 60.4197 66.3825 62.2697 64.8241 63.828C63.2658 65.3864 61.4158 66.6225 59.3797 67.4659C57.3437 68.3092 55.1614 68.7433 52.9576 68.7433C50.7538 68.7433 48.5715 68.3092 46.5355 67.4659C44.4994 66.6225 42.6494 65.3864 41.0911 63.828C39.5327 62.2697 38.2966 60.4197 37.4532 58.3836C36.6099 56.3476 36.1758 54.1653 36.1758 51.9615L52.9576 51.9615H69.7394Z" fill="white"/>
<path d="M126.723 72.8234V36.1715H118.332V29.4121H134.648V72.8234H126.723Z" fill="#0D163F"/>
<path d="M150.225 72.8234V36.1715H141.834V29.4121H158.149V72.8234H150.225Z" fill="#0D163F"/>
<path d="M164.461 72.8234V66.6468L182.874 45.3199L184.04 47.942H165.277V41.1244H190.799V47.3593L172.735 68.6862L171.57 66.0641H190.916V72.8234H164.461Z" fill="#0D163F"/>
<path d="M204.868 73.5227C202.654 73.5227 200.731 73.1536 199.1 72.4155C197.468 71.6774 196.205 70.6286 195.312 69.2689C194.419 67.8705 193.972 66.2583 193.972 64.4325C193.972 62.6844 194.36 61.1305 195.137 59.7709C195.914 58.3724 197.118 57.207 198.75 56.2747C200.382 55.3424 202.44 54.682 204.927 54.2935L215.299 52.6037V58.4307L206.383 59.9457C204.868 60.2176 203.742 60.7032 203.004 61.4025C202.266 62.1017 201.897 63.0146 201.897 64.1412C201.897 65.2289 202.304 66.1029 203.12 66.7633C203.975 67.3849 205.024 67.6956 206.267 67.6956C207.86 67.6956 209.258 67.3654 210.462 66.705C211.705 66.0058 212.657 65.0541 213.317 63.8498C214.017 62.6456 214.366 61.3248 214.366 59.8874V51.7296C214.366 50.37 213.823 49.2434 212.735 48.3499C211.686 47.4176 210.287 46.9514 208.539 46.9514C206.908 46.9514 205.451 47.3982 204.169 48.2917C202.926 49.1463 202.013 50.2923 201.43 51.7296L195.195 48.6996C195.817 47.0291 196.788 45.5918 198.109 44.3876C199.469 43.1445 201.061 42.1733 202.887 41.474C204.713 40.7748 206.694 40.4252 208.831 40.4252C211.433 40.4252 213.725 40.9108 215.707 41.8819C217.688 42.8143 219.222 44.1351 220.31 45.8443C221.436 47.5147 222 49.4765 222 51.7296V72.8234H214.774V67.4043L216.406 67.2878C215.59 68.6474 214.619 69.7934 213.492 70.7257C212.366 71.6192 211.084 72.3184 209.646 72.8234C208.209 73.2896 206.616 73.5227 204.868 73.5227Z" fill="#0D163F"/>
<path d="M239.8 35.12C237.907 35.12 236.173 34.6667 234.6 33.76C233.053 32.8267 231.813 31.5867 230.88 30.04C229.973 28.4667 229.52 26.7467 229.52 24.88C229.52 22.9867 229.973 21.2667 230.88 19.72C231.813 18.1733 233.053 16.9467 234.6 16.04C236.173 15.1067 237.907 14.64 239.8 14.64C241.213 14.64 242.533 14.9067 243.76 15.44C245.013 15.9733 246.107 16.7067 247.04 17.64C247.973 18.5733 248.707 19.6667 249.24 20.92C249.773 22.1467 250.04 23.4667 250.04 24.88C250.04 26.7467 249.573 28.4667 248.64 30.04C247.733 31.5867 246.507 32.8267 244.96 33.76C243.413 34.6667 241.693 35.12 239.8 35.12ZM239.8 33.08C241.32 33.08 242.693 32.72 243.92 32C245.173 31.28 246.16 30.2933 246.88 29.04C247.627 27.7867 248 26.4 248 24.88C248 23.36 247.627 21.9867 246.88 20.76C246.16 19.5067 245.173 18.52 243.92 17.8C242.693 17.0533 241.32 16.68 239.8 16.68C238.253 16.68 236.853 17.0533 235.6 17.8C234.373 18.52 233.387 19.5067 232.64 20.76C231.92 21.9867 231.56 23.36 231.56 24.88C231.56 26.4 231.92 27.7867 232.64 29.04C233.387 30.2667 234.373 31.2533 235.6 32C236.853 32.72 238.253 33.08 239.8 33.08ZM236.08 30.24V19.44H240.24C241.333 19.44 242.227 19.7467 242.92 20.36C243.64 20.9467 244 21.7867 244 22.88C244 23.5467 243.84 24.16 243.52 24.72C243.227 25.2533 242.747 25.6667 242.08 25.96L244.6 30.24H242.28L240.08 26.32H238.12V30.24H236.08ZM238.12 24.52H240.24C240.773 24.52 241.187 24.36 241.48 24.04C241.8 23.72 241.96 23.3333 241.96 22.88C241.96 22.4 241.8 22.0133 241.48 21.72C241.187 21.4267 240.773 21.28 240.24 21.28H238.12V24.52Z" fill="#0D163F"/>
</svg>
